<svg width="380" height="4" viewBox="0 0 380 4" fill="none" xmlns="http://www.w3.org/2000/svg">
<path d="M2.1 3.22C1.72667 3.22 1.42667 3.11333 1.2 2.9C0.986667 2.67333 0.88 2.37333 0.88 2C0.88 1.65333 0.986667 1.37333 1.2 1.16C1.42667 0.946667 1.72667 0.84 2.1 0.84C2.47333 0.84 2.76 0.946667 2.96 1.16C3.17333 1.36 3.28 1.64 3.28 2C3.28 2.38667 3.17333 2.68667 2.96 2.9C2.76 3.11333 2.47333 3.22 2.1 3.22ZM7.39297 3.22C7.01964 3.22 6.71964 3.11333 6.49297 2.9C6.27964 2.67333 6.17297 2.37333 6.17297 2C6.17297 1.65333 6.27964 1.37333 6.49297 1.16C6.71964 0.946667 7.01964 0.84 7.39297 0.84C7.7663 0.84 8.05297 0.946667 8.25297 1.16C8.4663 1.36 8.57297 1.64 8.57297 2C8.57297 2.38667 8.4663 2.68667 8.25297 2.9C8.05297 3.11333 7.7663 3.22 7.39297 3.22ZM12.6859 3.22C12.3126 3.22 12.0126 3.11333 11.7859 2.9C11.5726 2.67333 11.4659 2.37333 11.4659 2C11.4659 1.65333 11.5726 1.37333 11.7859 1.16C12.0126 0.946667 12.3126 0.84 12.6859 0.84C13.0593 0.84 13.3459 0.946667 13.5459 1.16C13.7593 1.36 13.8659 1.64 13.8659 2C13.8659 2.38667 13.7593 2.68667 13.5459 2.9C13.3459 3.11333 13.0593 3.22 12.6859 3.22ZM17.9789 3.22C17.6056 3.22 17.3056 3.11333 17.0789 2.9C16.8656 2.67333 16.7589 2.37333 16.7589 2C16.7589 1.65333 16.8656 1.37333 17.0789 1.16C17.3056 0.946667 17.6056 0.84 17.9789 0.84C18.3522 0.84 18.6389 0.946667 18.8389 1.16C19.0522 1.36 19.1589 1.64 19.1589 2C19.1589 2.38667 19.0522 2.68667 18.8389 2.9C18.6389 3.11333 18.3522 3.22 17.9789 3.22ZM23.2719 3.22C22.8985 3.22 22.5985 3.11333 22.3719 2.9C22.1585 2.67333 22.0519 2.37333 22.0519 2C22.0519 1.65333 22.1585 1.37333 22.3719 1.16C22.5985 0.946667 22.8985 0.84 23.2719 0.84C23.6452 0.84 23.9319 0.946667 24.1319 1.16C24.3452 1.36 24.4519 1.64 24.4519 2C24.4519 2.38667 24.3452 2.68667 24.1319 2.9C23.9319 3.11333 23.6452 3.22 23.2719 3.22ZM28.5648 3.22C28.1915 3.22 27.8915 3.11333 27.6648 2.9C27.4515 2.67333 27.3448 2.37333 27.3448 2C27.3448 1.65333 27.4515 1.37333 27.6648 1.16C27.8915 0.946667 28.1915 0.84 28.5648 0.84C28.9382 0.84 29.2248 0.946667 29.4248 1.16C29.6382 1.36 29.7448 1.64 29.7448 2C29.7448 2.38667 29.6382 2.68667 29.4248 2.9C29.2248 3.11333 28.9382 3.22 28.5648 3.22ZM33.8578 3.22C33.4845 3.22 33.1845 3.11333 32.9578 2.9C32.7445 2.67333 32.6378 2.37333 32.6378 2C32.6378 1.65333 32.7445 1.37333 32.9578 1.16C33.1845 0.946667 33.4845 0.84 33.8578 0.84C34.2311 0.84 34.5178 0.946667 34.7178 1.16C34.9311 1.36 35.0378 1.64 35.0378 2C35.0378 2.38667 34.9311 2.68667 34.7178 2.9C34.5178 3.11333 34.2311 3.22 33.8578 3.22ZM39.1508 3.22C38.7774 3.22 38.4774 3.11333 38.2508 2.9C38.0374 2.67333 37.9308 2.37333 37.9308 2C37.9308 1.65333 38.0374 1.37333 38.2508 1.16C38.4774 0.946667 38.7774 0.84 39.1508 0.84C39.5241 0.84 39.8108 0.946667 40.0108 1.16C40.2241 1.36 40.3308 1.64 40.3308 2C40.3308 2.38667 40.2241 2.68667 40.0108 2.9C39.8108 3.11333 39.5241 3.22 39.1508 3.22ZM44.4438 3.22C44.0704 3.22 43.7704 3.11333 43.5438 2.9C43.3304 2.67333 43.2238 2.37333 43.2238 2C43.2238 1.65333 43.3304 1.37333 43.5438 1.16C43.7704 0.946667 44.0704 0.84 44.4438 0.84C44.8171 0.84 45.1038 0.946667 45.3038 1.16C45.5171 1.36 45.6238 1.64 45.6238 2C45.6238 2.38667 45.5171 2.68667 45.3038 2.9C45.1038 3.11333 44.8171 3.22 44.4438 3.22ZM49.7367 3.22C49.3634 3.22 49.0634 3.11333 48.8367 2.9C48.6234 2.67333 48.5167 2.37333 48.5167 2C48.5167 1.65333 48.6234 1.37333 48.8367 1.16C49.0634 0.946667 49.3634 0.84 49.7367 0.84C50.1101 0.84 50.3967 0.946667 50.5967 1.16C50.8101 1.36 50.9167 1.64 50.9167 2C50.9167 2.38667 50.8101 2.68667 50.5967 2.9C50.3967 3.11333 50.1101 3.22 49.7367 3.22ZM55.0297 3.22C54.6564 3.22 54.3564 3.11333 54.1297 2.9C53.9164 2.67333 53.8097 2.37333 53.8097 2C53.8097 1.65333 53.9164 1.37333 54.1297 1.16C54.3564 0.946667 54.6564 0.84 55.0297 0.84C55.403 0.84 55.6897 0.946667 55.8897 1.16C56.103 1.36 56.2097 1.64 56.2097 2C56.2097 2.38667 56.103 2.68667 55.8897 2.9C55.6897 3.11333 55.403 3.22 55.0297 3.22ZM60.3227 3.22C59.9493 3.22 59.6493 3.11333 59.4227 2.9C59.2093 2.67333 59.1027 2.37333 59.1027 2C59.1027 1.65333 59.2093 1.37333 59.4227 1.16C59.6493 0.946667 59.9493 0.84 60.3227 0.84C60.696 0.84 60.9827 0.946667 61.1827 1.16C61.396 1.36 61.5027 1.64 61.5027 2C61.5027 2.38667 61.396 2.68667 61.1827 2.9C60.9827 3.11333 60.696 3.22 60.3227 3.22ZM65.6156 3.22C65.2423 3.22 64.9423 3.11333 64.7156 2.9C64.5023 2.67333 64.3956 2.37333 64.3956 2C64.3956 1.65333 64.5023 1.37333 64.7156 1.16C64.9423 0.946667 65.2423 0.84 65.6156 0.84C65.989 0.84 66.2756 0.946667 66.4756 1.16C66.689 1.36 66.7956 1.64 66.7956 2C66.7956 2.38667 66.689 2.68667 66.4756 2.9C66.2756 3.11333 65.989 3.22 65.6156 3.22ZM70.9086 3.22C70.5353 3.22 70.2353 3.11333 70.0086 2.9C69.7953 2.67333 69.6886 2.37333 69.6886 2C69.6886 1.65333 69.7953 1.37333 70.0086 1.16C70.2353 0.946667 70.5353 0.84 70.9086 0.84C71.2819 0.84 71.5686 0.946667 71.7686 1.16C71.9819 1.36 72.0886 1.64 72.0886 2C72.0886 2.38667 71.9819 2.68667 71.7686 2.9C71.5686 3.11333 71.2819 3.22 70.9086 3.22ZM76.2016 3.22C75.8282 3.22 75.5282 3.11333 75.3016 2.9C75.0882 2.67333 74.9816 2.37333 74.9816 2C74.9816 1.65333 75.0882 1.37333 75.3016 1.16C75.5282 0.946667 75.8282 0.84 76.2016 0.84C76.5749 0.84 76.8616 0.946667 77.0616 1.16C77.2749 1.36 77.3816 1.64 77.3816 2C77.3816 2.38667 77.2749 2.68667 77.0616 2.9C76.8616 3.11333 76.5749 3.22 76.2016 3.22ZM81.4945 3.22C81.1212 3.22 80.8212 3.11333 80.5945 2.9C80.3812 2.67333 80.2745 2.37333 80.2745 2C80.2745 1.65333 80.3812 1.37333 80.5945 1.16C80.8212 0.946667 81.1212 0.84 81.4945 0.84C81.8679 0.84 82.1545 0.946667 82.3545 1.16C82.5679 1.36 82.6745 1.64 82.6745 2C82.6745 2.38667 82.5679 2.68667 82.3545 2.9C82.1545 3.11333 81.8679 3.22 81.4945 3.22ZM86.7875 3.22C86.4142 3.22 86.1142 3.11333 85.8875 2.9C85.6742 2.67333 85.5675 2.37333 85.5675 2C85.5675 1.65333 85.6742 1.37333 85.8875 1.16C86.1142 0.946667 86.4142 0.84 86.7875 0.84C87.1608 0.84 87.4475 0.946667 87.6475 1.16C87.8608 1.36 87.9675 1.64 87.9675 2C87.9675 2.38667 87.8608 2.68667 87.6475 2.9C87.4475 3.11333 87.1608 3.22 86.7875 3.22ZM92.0805 3.22C91.7071 3.22 91.4071 3.11333 91.1805 2.9C90.9671 2.67333 90.8605 2.37333 90.8605 2C90.8605 1.65333 90.9671 1.37333 91.1805 1.16C91.4071 0.946667 91.7071 0.84 92.0805 0.84C92.4538 0.84 92.7405 0.946667 92.9405 1.16C93.1538 1.36 93.2605 1.64 93.2605 2C93.2605 2.38667 93.1538 2.68667 92.9405 2.9C92.7405 3.11333 92.4538 3.22 92.0805 3.22ZM97.3734 3.22C97.0001 3.22 96.7001 3.11333 96.4734 2.9C96.2601 2.67333 96.1534 2.37333 96.1534 2C96.1534 1.65333 96.2601 1.37333 96.4734 1.16C96.7001 0.946667 97.0001 0.84 97.3734 0.84C97.7468 0.84 98.0334 0.946667 98.2334 1.16C98.4468 1.36 98.5534 1.64 98.5534 2C98.5534 2.38667 98.4468 2.68667 98.2334 2.9C98.0334 3.11333 97.7468 3.22 97.3734 3.22ZM102.666 3.22C102.293 3.22 101.993 3.11333 101.766 2.9C101.553 2.67333 101.446 2.37333 101.446 2C101.446 1.65333 101.553 1.37333 101.766 1.16C101.993 0.946667 102.293 0.84 102.666 0.84C103.04 0.84 103.326 0.946667 103.526 1.16C103.74 1.36 103.846 1.64 103.846 2C103.846 2.38667 103.74 2.68667 103.526 2.9C103.326 3.11333 103.04 3.22 102.666 3.22ZM107.959 3.22C107.586 3.22 107.286 3.11333 107.059 2.9C106.846 2.67333 106.739 2.37333 106.739 2C106.739 1.65333 106.846 1.37333 107.059 1.16C107.286 0.946667 107.586 0.84 107.959 0.84C108.333 0.84 108.619 0.946667 108.819 1.16C109.033 1.36 109.139 1.64 109.139 2C109.139 2.38667 109.033 2.68667 108.819 2.9C108.619 3.11333 108.333 3.22 107.959 3.22ZM113.252 3.22C112.879 3.22 112.579 3.11333 112.352 2.9C112.139 2.67333 112.032 2.37333 112.032 2C112.032 1.65333 112.139 1.37333 112.352 1.16C112.579 0.946667 112.879 0.84 113.252 0.84C113.626 0.84 113.912 0.946667 114.112 1.16C114.326 1.36 114.432 1.64 114.432 2C114.432 2.38667 114.326 2.68667 114.112 2.9C113.912 3.11333 113.626 3.22 113.252 3.22ZM118.545 3.22C118.172 3.22 117.872 3.11333 117.645 2.9C117.432 2.67333 117.325 2.37333 117.325 2C117.325 1.65333 117.432 1.37333 117.645 1.16C117.872 0.946667 118.172 0.84 118.545 0.84C118.919 0.84 119.205 0.946667 119.405 1.16C119.619 1.36 119.725 1.64 119.725 2C119.725 2.38667 119.619 2.68667 119.405 2.9C119.205 3.11333 118.919 3.22 118.545 3.22ZM123.838 3.22C123.465 3.22 123.165 3.11333 122.938 2.9C122.725 2.67333 122.618 2.37333 122.618 2C122.618 1.65333 122.725 1.37333 122.938 1.16C123.165 0.946667 123.465 0.84 123.838 0.84C124.212 0.84 124.498 0.946667 124.698 1.16C124.912 1.36 125.018 1.64 125.018 2C125.018 2.38667 124.912 2.68667 124.698 2.9C124.498 3.11333 124.212 3.22 123.838 3.22ZM129.131 3.22C128.758 3.22 128.458 3.11333 128.231 2.9C128.018 2.67333 127.911 2.37333 127.911 2C127.911 1.65333 128.018 1.37333 128.231 1.16C128.458 0.946667 128.758 0.84 129.131 0.84C129.505 0.84 129.791 0.946667 129.991 1.16C130.205 1.36 130.311 1.64 130.311 2C130.311 2.38667 130.205 2.68667 129.991 2.9C129.791 3.11333 129.505 3.22 129.131 3.22ZM134.424 3.22C134.051 3.22 133.751 3.11333 133.524 2.9C133.311 2.67333 133.204 2.37333 133.204 2C133.204 1.65333 133.311 1.37333 133.524 1.16C133.751 0.946667 134.051 0.84 134.424 0.84C134.798 0.84 135.084 0.946667 135.284 1.16C135.498 1.36 135.604 1.64 135.604 2C135.604 2.38667 135.498 2.68667 135.284 2.9C135.084 3.11333 134.798 3.22 134.424 3.22ZM139.717 3.22C139.344 3.22 139.044 3.11333 138.817 2.9C138.604 2.67333 138.497 2.37333 138.497 2C138.497 1.65333 138.604 1.37333 138.817 1.16C139.044 0.946667 139.344 0.84 139.717 0.84C140.091 0.84 140.377 0.946667 140.577 1.16C140.791 1.36 140.897 1.64 140.897 2C140.897 2.38667 140.791 2.68667 140.577 2.9C140.377 3.11333 140.091 3.22 139.717 3.22ZM145.01 3.22C144.637 3.22 144.337 3.11333 144.11 2.9C143.897 2.67333 143.79 2.37333 143.79 2C143.79 1.65333 143.897 1.37333 144.11 1.16C144.337 0.946667 144.637 0.84 145.01 0.84C145.383 0.84 145.67 0.946667 145.87 1.16C146.083 1.36 146.19 1.64 146.19 2C146.19 2.38667 146.083 2.68667 145.87 2.9C145.67 3.11333 145.383 3.22 145.01 3.22ZM150.303 3.22C149.93 3.22 149.63 3.11333 149.403 2.9C149.19 2.67333 149.083 2.37333 149.083 2C149.083 1.65333 149.19 1.37333 149.403 1.16C149.63 0.946667 149.93 0.84 150.303 0.84C150.676 0.84 150.963 0.946667 151.163 1.16C151.376 1.36 151.483 1.64 151.483 2C151.483 2.38667 151.376 2.68667 151.163 2.9C150.963 3.11333 150.676 3.22 150.303 3.22ZM155.596 3.22C155.223 3.22 154.923 3.11333 154.696 2.9C154.483 2.67333 154.376 2.37333 154.376 2C154.376 1.65333 154.483 1.37333 154.696 1.16C154.923 0.946667 155.223 0.84 155.596 0.84C155.969 0.84 156.256 0.946667 156.456 1.16C156.669 1.36 156.776 1.64 156.776 2C156.776 2.38667 156.669 2.68667 156.456 2.9C156.256 3.11333 155.969 3.22 155.596 3.22ZM160.889 3.22C160.516 3.22 160.216 3.11333 159.989 2.9C159.776 2.67333 159.669 2.37333 159.669 2C159.669 1.65333 159.776 1.37333 159.989 1.16C160.216 0.946667 160.516 0.84 160.889 0.84C161.262 0.84 161.549 0.946667 161.749 1.16C161.962 1.36 162.069 1.64 162.069 2C162.069 2.38667 161.962 2.68667 161.749 2.9C161.549 3.11333 161.262 3.22 160.889 3.22ZM166.182 3.22C165.809 3.22 165.509 3.11333 165.282 2.9C165.069 2.67333 164.962 2.37333 164.962 2C164.962 1.65333 165.069 1.37333 165.282 1.16C165.509 0.946667 165.809 0.84 166.182 0.84C166.555 0.84 166.842 0.946667 167.042 1.16C167.255 1.36 167.362 1.64 167.362 2C167.362 2.38667 167.255 2.68667 167.042 2.9C166.842 3.11333 166.555 3.22 166.182 3.22ZM171.475 3.22C171.102 3.22 170.802 3.11333 170.575 2.9C170.362 2.67333 170.255 2.37333 170.255 2C170.255 1.65333 170.362 1.37333 170.575 1.16C170.802 0.946667 171.102 0.84 171.475 0.84C171.848 0.84 172.135 0.946667 172.335 1.16C172.548 1.36 172.655 1.64 172.655 2C172.655 2.38667 172.548 2.68667 172.335 2.9C172.135 3.11333 171.848 3.22 171.475 3.22ZM176.768 3.22C176.395 3.22 176.095 3.11333 175.868 2.9C175.655 2.67333 175.548 2.37333 175.548 2C175.548 1.65333 175.655 1.37333 175.868 1.16C176.095 0.946667 176.395 0.84 176.768 0.84C177.141 0.84 177.428 0.946667 177.628 1.16C177.841 1.36 177.948 1.64 177.948 2C177.948 2.38667 177.841 2.68667 177.628 2.9C177.428 3.11333 177.141 3.22 176.768 3.22ZM182.061 3.22C181.688 3.22 181.388 3.11333 181.161 2.9C180.948 2.67333 180.841 2.37333 180.841 2C180.841 1.65333 180.948 1.37333 181.161 1.16C181.388 0.946667 181.688 0.84 182.061 0.84C182.434 0.84 182.721 0.946667 182.921 1.16C183.134 1.36 183.241 1.64 183.241 2C183.241 2.38667 183.134 2.68667 182.921 2.9C182.721 3.11333 182.434 3.22 182.061 3.22ZM187.354 3.22C186.981 3.22 186.681 3.11333 186.454 2.9C186.241 2.67333 186.134 2.37333 186.134 2C186.134 1.65333 186.241 1.37333 186.454 1.16C186.681 0.946667 186.981 0.84 187.354 0.84C187.727 0.84 188.014 0.946667 188.214 1.16C188.427 1.36 188.534 1.64 188.534 2C188.534 2.38667 188.427 2.68667 188.214 2.9C188.014 3.11333 187.727 3.22 187.354 3.22ZM192.647 3.22C192.274 3.22 191.974 3.11333 191.747 2.9C191.534 2.67333 191.427 2.37333 191.427 2C191.427 1.65333 191.534 1.37333 191.747 1.16C191.974 0.946667 192.274 0.84 192.647 0.84C193.02 0.84 193.307 0.946667 193.507 1.16C193.72 1.36 193.827 1.64 193.827 2C193.827 2.38667 193.72 2.68667 193.507 2.9C193.307 3.11333 193.02 3.22 192.647 3.22ZM197.94 3.22C197.567 3.22 197.267 3.11333 197.04 2.9C196.827 2.67333 196.72 2.37333 196.72 2C196.72 1.65333 196.827 1.37333 197.04 1.16C197.267 0.946667 197.567 0.84 197.94 0.84C198.313 0.84 198.6 0.946667 198.8 1.16C199.013 1.36 199.12 1.64 199.12 2C199.12 2.38667 199.013 2.68667 198.8 2.9C198.6 3.11333 198.313 3.22 197.94 3.22ZM203.233 3.22C202.859 3.22 202.559 3.11333 202.333 2.9C202.119 2.67333 202.013 2.37333 202.013 2C202.013 1.65333 202.119 1.37333 202.333 1.16C202.559 0.946667 202.859 0.84 203.233 0.84C203.606 0.84 203.893 0.946667 204.093 1.16C204.306 1.36 204.413 1.64 204.413 2C204.413 2.38667 204.306 2.68667 204.093 2.9C203.893 3.11333 203.606 3.22 203.233 3.22ZM208.526 3.22C208.152 3.22 207.852 3.11333 207.626 2.9C207.412 2.67333 207.306 2.37333 207.306 2C207.306 1.65333 207.412 1.37333 207.626 1.16C207.852 0.946667 208.152 0.84 208.526 0.84C208.899 0.84 209.186 0.946667 209.386 1.16C209.599 1.36 209.706 1.64 209.706 2C209.706 2.38667 209.599 2.68667 209.386 2.9C209.186 3.11333 208.899 3.22 208.526 3.22ZM213.819 3.22C213.445 3.22 213.145 3.11333 212.919 2.9C212.705 2.67333 212.599 2.37333 212.599 2C212.599 1.65333 212.705 1.37333 212.919 1.16C213.145 0.946667 213.445 0.84 213.819 0.84C214.192 0.84 214.479 0.946667 214.679 1.16C214.892 1.36 214.999 1.64 214.999 2C214.999 2.38667 214.892 2.68667 214.679 2.9C214.479 3.11333 214.192 3.22 213.819 3.22ZM219.112 3.22C218.738 3.22 218.438 3.11333 218.212 2.9C217.998 2.67333 217.892 2.37333 217.892 2C217.892 1.65333 217.998 1.37333 218.212 1.16C218.438 0.946667 218.738 0.84 219.112 0.84C219.485 0.84 219.772 0.946667 219.972 1.16C220.185 1.36 220.292 1.64 220.292 2C220.292 2.38667 220.185 2.68667 219.972 2.9C219.772 3.11333 219.485 3.22 219.112 3.22ZM224.405 3.22C224.031 3.22 223.731 3.11333 223.505 2.9C223.291 2.67333 223.185 2.37333 223.185 2C223.185 1.65333 223.291 1.37333 223.505 1.16C223.731 0.946667 224.031 0.84 224.405 0.84C224.778 0.84 225.065 0.946667 225.265 1.16C225.478 1.36 225.585 1.64 225.585 2C225.585 2.38667 225.478 2.68667 225.265 2.9C225.065 3.11333 224.778 3.22 224.405 3.22ZM229.698 3.22C229.324 3.22 229.024 3.11333 228.798 2.9C228.584 2.67333 228.478 2.37333 228.478 2C228.478 1.65333 228.584 1.37333 228.798 1.16C229.024 0.946667 229.324 0.84 229.698 0.84C230.071 0.84 230.358 0.946667 230.558 1.16C230.771 1.36 230.878 1.64 230.878 2C230.878 2.38667 230.771 2.68667 230.558 2.9C230.358 3.11333 230.071 3.22 229.698 3.22ZM234.991 3.22C234.617 3.22 234.317 3.11333 234.091 2.9C233.877 2.67333 233.771 2.37333 233.771 2C233.771 1.65333 233.877 1.37333 234.091 1.16C234.317 0.946667 234.617 0.84 234.991 0.84C235.364 0.84 235.651 0.946667 235.851 1.16C236.064 1.36 236.171 1.64 236.171 2C236.171 2.38667 236.064 2.68667 235.851 2.9C235.651 3.11333 235.364 3.22 234.991 3.22ZM240.284 3.22C239.91 3.22 239.61 3.11333 239.384 2.9C239.17 2.67333 239.064 2.37333 239.064 2C239.064 1.65333 239.17 1.37333 239.384 1.16C239.61 0.946667 239.91 0.84 240.284 0.84C240.657 0.84 240.944 0.946667 241.144 1.16C241.357 1.36 241.464 1.64 241.464 2C241.464 2.38667 241.357 2.68667 241.144 2.9C240.944 3.11333 240.657 3.22 240.284 3.22ZM245.577 3.22C245.203 3.22 244.903 3.11333 244.677 2.9C244.463 2.67333 244.357 2.37333 244.357 2C244.357 1.65333 244.463 1.37333 244.677 1.16C244.903 0.946667 245.203 0.84 245.577 0.84C245.95 0.84 246.237 0.946667 246.437 1.16C246.65 1.36 246.757 1.64 246.757 2C246.757 2.38667 246.65 2.68667 246.437 2.9C246.237 3.11333 245.95 3.22 245.577 3.22ZM250.87 3.22C250.496 3.22 250.196 3.11333 249.97 2.9C249.756 2.67333 249.65 2.37333 249.65 2C249.65 1.65333 249.756 1.37333 249.97 1.16C250.196 0.946667 250.496 0.84 250.87 0.84C251.243 0.84 251.53 0.946667 251.73 1.16C251.943 1.36 252.05 1.64 252.05 2C252.05 2.38667 251.943 2.68667 251.73 2.9C251.53 3.11333 251.243 3.22 250.87 3.22ZM256.163 3.22C255.789 3.22 255.489 3.11333 255.263 2.9C255.049 2.67333 254.943 2.37333 254.943 2C254.943 1.65333 255.049 1.37333 255.263 1.16C255.489 0.946667 255.789 0.84 256.163 0.84C256.536 0.84 256.823 0.946667 257.023 1.16C257.236 1.36 257.343 1.64 257.343 2C257.343 2.38667 257.236 2.68667 257.023 2.9C256.823 3.11333 256.536 3.22 256.163 3.22ZM261.455 3.22C261.082 3.22 260.782 3.11333 260.555 2.9C260.342 2.67333 260.235 2.37333 260.235 2C260.235 1.65333 260.342 1.37333 260.555 1.16C260.782 0.946667 261.082 0.84 261.455 0.84C261.829 0.84 262.115 0.946667 262.315 1.16C262.529 1.36 262.635 1.64 262.635 2C262.635 2.38667 262.529 2.68667 262.315 2.9C262.115 3.11333 261.829 3.22 261.455 3.22ZM266.748 3.22C266.375 3.22 266.075 3.11333 265.848 2.9C265.635 2.67333 265.528 2.37333 265.528 2C265.528 1.65333 265.635 1.37333 265.848 1.16C266.075 0.946667 266.375 0.84 266.748 0.84C267.122 0.84 267.408 0.946667 267.608 1.16C267.822 1.36 267.928 1.64 267.928 2C267.928 2.38667 267.822 2.68667 267.608 2.9C267.408 3.11333 267.122 3.22 266.748 3.22ZM272.041 3.22C271.668 3.22 271.368 3.11333 271.141 2.9C270.928 2.67333 270.821 2.37333 270.821 2C270.821 1.65333 270.928 1.37333 271.141 1.16C271.368 0.946667 271.668 0.84 272.041 0.84C272.415 0.84 272.701 0.946667 272.901 1.16C273.115 1.36 273.221 1.64 273.221 2C273.221 2.38667 273.115 2.68667 272.901 2.9C272.701 3.11333 272.415 3.22 272.041 3.22ZM277.334 3.22C276.961 3.22 276.661 3.11333 276.434 2.9C276.221 2.67333 276.114 2.37333 276.114 2C276.114 1.65333 276.221 1.37333 276.434 1.16C276.661 0.946667 276.961 0.84 277.334 0.84C277.708 0.84 277.994 0.946667 278.194 1.16C278.408 1.36 278.514 1.64 278.514 2C278.514 2.38667 278.408 2.68667 278.194 2.9C277.994 3.11333 277.708 3.22 277.334 3.22ZM282.627 3.22C282.254 3.22 281.954 3.11333 281.727 2.9C281.514 2.67333 281.407 2.37333 281.407 2C281.407 1.65333 281.514 1.37333 281.727 1.16C281.954 0.946667 282.254 0.84 282.627 0.84C283.001 0.84 283.287 0.946667 283.487 1.16C283.701 1.36 283.807 1.64 283.807 2C283.807 2.38667 283.701 2.68667 283.487 2.9C283.287 3.11333 283.001 3.22 282.627 3.22ZM287.92 3.22C287.547 3.22 287.247 3.11333 287.02 2.9C286.807 2.67333 286.7 2.37333 286.7 2C286.7 1.65333 286.807 1.37333 287.02 1.16C287.247 0.946667 287.547 0.84 287.92 0.84C288.294 0.84 288.58 0.946667 288.78 1.16C288.994 1.36 289.1 1.64 289.1 2C289.1 2.38667 288.994 2.68667 288.78 2.9C288.58 3.11333 288.294 3.22 287.92 3.22ZM293.213 3.22C292.84 3.22 292.54 3.11333 292.313 2.9C292.1 2.67333 291.993 2.37333 291.993 2C291.993 1.65333 292.1 1.37333 292.313 1.16C292.54 0.946667 292.84 0.84 293.213 0.84C293.587 0.84 293.873 0.946667 294.073 1.16C294.287 1.36 294.393 1.64 294.393 2C294.393 2.38667 294.287 2.68667 294.073 2.9C293.873 3.11333 293.587 3.22 293.213 3.22ZM298.506 3.22C298.133 3.22 297.833 3.11333 297.606 2.9C297.393 2.67333 297.286 2.37333 297.286 2C297.286 1.65333 297.393 1.37333 297.606 1.16C297.833 0.946667 298.133 0.84 298.506 0.84C298.88 0.84 299.166 0.946667 299.366 1.16C299.58 1.36 299.686 1.64 299.686 2C299.686 2.38667 299.58 2.68667 299.366 2.9C299.166 3.11333 298.88 3.22 298.506 3.22ZM303.799 3.22C303.426 3.22 303.126 3.11333 302.899 2.9C302.686 2.67333 302.579 2.37333 302.579 2C302.579 1.65333 302.686 1.37333 302.899 1.16C303.126 0.946667 303.426 0.84 303.799 0.84C304.173 0.84 304.459 0.946667 304.659 1.16C304.873 1.36 304.979 1.64 304.979 2C304.979 2.38667 304.873 2.68667 304.659 2.9C304.459 3.11333 304.173 3.22 303.799 3.22ZM309.092 3.22C308.719 3.22 308.419 3.11333 308.192 2.9C307.979 2.67333 307.872 2.37333 307.872 2C307.872 1.65333 307.979 1.37333 308.192 1.16C308.419 0.946667 308.719 0.84 309.092 0.84C309.466 0.84 309.752 0.946667 309.952 1.16C310.166 1.36 310.272 1.64 310.272 2C310.272 2.38667 310.166 2.68667 309.952 2.9C309.752 3.11333 309.466 3.22 309.092 3.22ZM314.385 3.22C314.012 3.22 313.712 3.11333 313.485 2.9C313.272 2.67333 313.165 2.37333 313.165 2C313.165 1.65333 313.272 1.37333 313.485 1.16C313.712 0.946667 314.012 0.84 314.385 0.84C314.758 0.84 315.045 0.946667 315.245 1.16C315.458 1.36 315.565 1.64 315.565 2C315.565 2.38667 315.458 2.68667 315.245 2.9C315.045 3.11333 314.758 3.22 314.385 3.22ZM319.678 3.22C319.305 3.22 319.005 3.11333 318.778 2.9C318.565 2.67333 318.458 2.37333 318.458 2C318.458 1.65333 318.565 1.37333 318.778 1.16C319.005 0.946667 319.305 0.84 319.678 0.84C320.051 0.84 320.338 0.946667 320.538 1.16C320.751 1.36 320.858 1.64 320.858 2C320.858 2.38667 320.751 2.68667 320.538 2.9C320.338 3.11333 320.051 3.22 319.678 3.22ZM324.971 3.22C324.598 3.22 324.298 3.11333 324.071 2.9C323.858 2.67333 323.751 2.37333 323.751 2C323.751 1.65333 323.858 1.37333 324.071 1.16C324.298 0.946667 324.598 0.84 324.971 0.84C325.344 0.84 325.631 0.946667 325.831 1.16C326.044 1.36 326.151 1.64 326.151 2C326.151 2.38667 326.044 2.68667 325.831 2.9C325.631 3.11333 325.344 3.22 324.971 3.22ZM330.264 3.22C329.891 3.22 329.591 3.11333 329.364 2.9C329.151 2.67333 329.044 2.37333 329.044 2C329.044 1.65333 329.151 1.37333 329.364 1.16C329.591 0.946667 329.891 0.84 330.264 0.84C330.637 0.84 330.924 0.946667 331.124 1.16C331.337 1.36 331.444 1.64 331.444 2C331.444 2.38667 331.337 2.68667 331.124 2.9C330.924 3.11333 330.637 3.22 330.264 3.22ZM335.557 3.22C335.184 3.22 334.884 3.11333 334.657 2.9C334.444 2.67333 334.337 2.37333 334.337 2C334.337 1.65333 334.444 1.37333 334.657 1.16C334.884 0.946667 335.184 0.84 335.557 0.84C335.93 0.84 336.217 0.946667 336.417 1.16C336.63 1.36 336.737 1.64 336.737 2C336.737 2.38667 336.63 2.68667 336.417 2.9C336.217 3.11333 335.93 3.22 335.557 3.22ZM340.85 3.22C340.477 3.22 340.177 3.11333 339.95 2.9C339.737 2.67333 339.63 2.37333 339.63 2C339.63 1.65333 339.737 1.37333 339.95 1.16C340.177 0.946667 340.477 0.84 340.85 0.84C341.223 0.84 341.51 0.946667 341.71 1.16C341.923 1.36 342.03 1.64 342.03 2C342.03 2.38667 341.923 2.68667 341.71 2.9C341.51 3.11333 341.223 3.22 340.85 3.22ZM346.143 3.22C345.77 3.22 345.47 3.11333 345.243 2.9C345.03 2.67333 344.923 2.37333 344.923 2C344.923 1.65333 345.03 1.37333 345.243 1.16C345.47 0.946667 345.77 0.84 346.143 0.84C346.516 0.84 346.803 0.946667 347.003 1.16C347.216 1.36 347.323 1.64 347.323 2C347.323 2.38667 347.216 2.68667 347.003 2.9C346.803 3.11333 346.516 3.22 346.143 3.22ZM351.436 3.22C351.063 3.22 350.763 3.11333 350.536 2.9C350.323 2.67333 350.216 2.37333 350.216 2C350.216 1.65333 350.323 1.37333 350.536 1.16C350.763 0.946667 351.063 0.84 351.436 0.84C351.809 0.84 352.096 0.946667 352.296 1.16C352.509 1.36 352.616 1.64 352.616 2C352.616 2.38667 352.509 2.68667 352.296 2.9C352.096 3.11333 351.809 3.22 351.436 3.22ZM356.729 3.22C356.356 3.22 356.056 3.11333 355.829 2.9C355.616 2.67333 355.509 2.37333 355.509 2C355.509 1.65333 355.616 1.37333 355.829 1.16C356.056 0.946667 356.356 0.84 356.729 0.84C357.102 0.84 357.389 0.946667 357.589 1.16C357.802 1.36 357.909 1.64 357.909 2C357.909 2.38667 357.802 2.68667 357.589 2.9C357.389 3.11333 357.102 3.22 356.729 3.22ZM362.022 3.22C361.649 3.22 361.349 3.11333 361.122 2.9C360.909 2.67333 360.802 2.37333 360.802 2C360.802 1.65333 360.909 1.37333 361.122 1.16C361.349 0.946667 361.649 0.84 362.022 0.84C362.395 0.84 362.682 0.946667 362.882 1.16C363.095 1.36 363.202 1.64 363.202 2C363.202 2.38667 363.095 2.68667 362.882 2.9C362.682 3.11333 362.395 3.22 362.022 3.22ZM367.315 3.22C366.942 3.22 366.642 3.11333 366.415 2.9C366.202 2.67333 366.095 2.37333 366.095 2C366.095 1.65333 366.202 1.37333 366.415 1.16C366.642 0.946667 366.942 0.84 367.315 0.84C367.688 0.84 367.975 0.946667 368.175 1.16C368.388 1.36 368.495 1.64 368.495 2C368.495 2.38667 368.388 2.68667 368.175 2.9C367.975 3.11333 367.688 3.22 367.315 3.22ZM372.608 3.22C372.234 3.22 371.934 3.11333 371.708 2.9C371.494 2.67333 371.388 2.37333 371.388 2C371.388 1.65333 371.494 1.37333 371.708 1.16C371.934 0.946667 372.234 0.84 372.608 0.84C372.981 0.84 373.268 0.946667 373.468 1.16C373.681 1.36 373.788 1.64 373.788 2C373.788 2.38667 373.681 2.68667 373.468 2.9C373.268 3.11333 372.981 3.22 372.608 3.22ZM377.901 3.22C377.527 3.22 377.227 3.11333 377.001 2.9C376.787 2.67333 376.681 2.37333 376.681 2C376.681 1.65333 376.787 1.37333 377.001 1.16C377.227 0.946667 377.527 0.84 377.901 0.84C378.274 0.84 378.561 0.946667 378.761 1.16C378.974 1.36 379.081 1.64 379.081 2C379.081 2.38667 378.974 2.68667 378.761 2.9C378.561 3.11333 378.274 3.22 377.901 3.22Z" fill="black"/>
</svg>
